<mxfile host="Electron" agent="Mozilla/5.0 (Windows NT 10.0; Win64; x64) AppleWebKit/537.36 (KHTML, like Gecko) draw.io/28.1.2 Chrome/138.0.7204.243 Electron/37.4.0 Safari/537.36" version="28.1.2">
  <diagram name="Страница — 1" id="BEl03OWJvTrQpM2IG_Ee">
    <mxGraphModel dx="1042" dy="722" grid="1" gridSize="10" guides="1" tooltips="1" connect="1" arrows="1" fold="1" page="1" pageScale="1" pageWidth="1169" pageHeight="827" math="0" shadow="0">
      <root>
        <mxCell id="0" />
        <mxCell id="1" parent="0" />
        <mxCell id="0FOS43QFxvbTKuppZV42-2" value="Преподаватель" style="rounded=0;whiteSpace=wrap;html=1;" parent="1" vertex="1">
          <mxGeometry x="300" y="240" width="120" height="60" as="geometry" />
        </mxCell>
        <mxCell id="0FOS43QFxvbTKuppZV42-3" value="Дисциплина" style="rounded=0;whiteSpace=wrap;html=1;" parent="1" vertex="1">
          <mxGeometry x="830" y="170" width="120" height="60" as="geometry" />
        </mxCell>
        <mxCell id="0FOS43QFxvbTKuppZV42-4" value="Специальность" style="rounded=0;whiteSpace=wrap;html=1;" parent="1" vertex="1">
          <mxGeometry x="830" y="370" width="120" height="60" as="geometry" />
        </mxCell>
        <mxCell id="0FOS43QFxvbTKuppZV42-6" value="Учебный план" style="rounded=0;whiteSpace=wrap;html=1;" parent="1" vertex="1">
          <mxGeometry x="730" y="550" width="120" height="60" as="geometry" />
        </mxCell>
        <mxCell id="0FOS43QFxvbTKuppZV42-8" value="ФИО&lt;div&gt;TEXT&lt;/div&gt;" style="ellipse;whiteSpace=wrap;html=1;" parent="1" vertex="1">
          <mxGeometry x="280" y="50" width="120" height="70" as="geometry" />
        </mxCell>
        <mxCell id="0FOS43QFxvbTKuppZV42-9" value="&lt;u&gt;ID&lt;/u&gt;&lt;div&gt;&lt;u&gt;INT&lt;/u&gt;&lt;/div&gt;" style="ellipse;whiteSpace=wrap;html=1;" parent="1" vertex="1">
          <mxGeometry x="420" y="60" width="120" height="75" as="geometry" />
        </mxCell>
        <mxCell id="0FOS43QFxvbTKuppZV42-10" value="" style="endArrow=none;html=1;rounded=0;exitX=0.5;exitY=1;exitDx=0;exitDy=0;entryX=0.5;entryY=0;entryDx=0;entryDy=0;" parent="1" source="0FOS43QFxvbTKuppZV42-8" target="0FOS43QFxvbTKuppZV42-2" edge="1">
          <mxGeometry width="50" height="50" relative="1" as="geometry">
            <mxPoint x="570" y="410" as="sourcePoint" />
            <mxPoint x="270" y="250" as="targetPoint" />
          </mxGeometry>
        </mxCell>
        <mxCell id="0FOS43QFxvbTKuppZV42-11" value="" style="endArrow=none;html=1;rounded=0;entryX=0.5;entryY=1;entryDx=0;entryDy=0;exitX=0.5;exitY=0;exitDx=0;exitDy=0;" parent="1" source="0FOS43QFxvbTKuppZV42-2" target="0FOS43QFxvbTKuppZV42-9" edge="1">
          <mxGeometry width="50" height="50" relative="1" as="geometry">
            <mxPoint x="480" y="330" as="sourcePoint" />
            <mxPoint x="650" y="270" as="targetPoint" />
          </mxGeometry>
        </mxCell>
        <mxCell id="0FOS43QFxvbTKuppZV42-12" value="Название&lt;div&gt;TEXT&lt;/div&gt;" style="ellipse;whiteSpace=wrap;html=1;" parent="1" vertex="1">
          <mxGeometry x="730" y="57.5" width="120" height="80" as="geometry" />
        </mxCell>
        <mxCell id="0FOS43QFxvbTKuppZV42-13" value="&lt;u&gt;ID&lt;/u&gt;&lt;div&gt;&lt;u&gt;INT&lt;/u&gt;&lt;/div&gt;" style="ellipse;whiteSpace=wrap;html=1;" parent="1" vertex="1">
          <mxGeometry x="920" y="57.5" width="120" height="80" as="geometry" />
        </mxCell>
        <mxCell id="0FOS43QFxvbTKuppZV42-14" value="" style="endArrow=none;html=1;rounded=0;entryX=0.5;entryY=1;entryDx=0;entryDy=0;exitX=0.5;exitY=0;exitDx=0;exitDy=0;" parent="1" source="0FOS43QFxvbTKuppZV42-3" target="0FOS43QFxvbTKuppZV42-12" edge="1">
          <mxGeometry width="50" height="50" relative="1" as="geometry">
            <mxPoint x="600" y="420" as="sourcePoint" />
            <mxPoint x="650" y="370" as="targetPoint" />
          </mxGeometry>
        </mxCell>
        <mxCell id="0FOS43QFxvbTKuppZV42-15" value="" style="endArrow=none;html=1;rounded=0;entryX=0.5;entryY=1;entryDx=0;entryDy=0;exitX=0.5;exitY=0;exitDx=0;exitDy=0;" parent="1" source="0FOS43QFxvbTKuppZV42-3" target="0FOS43QFxvbTKuppZV42-13" edge="1">
          <mxGeometry width="50" height="50" relative="1" as="geometry">
            <mxPoint x="650" y="280" as="sourcePoint" />
            <mxPoint x="700" y="230" as="targetPoint" />
          </mxGeometry>
        </mxCell>
        <mxCell id="0FOS43QFxvbTKuppZV42-16" value="Обязательнные часы (лекции)&lt;div&gt;INT&lt;/div&gt;" style="ellipse;whiteSpace=wrap;html=1;" parent="1" vertex="1">
          <mxGeometry x="150" y="60" width="120" height="80" as="geometry" />
        </mxCell>
        <mxCell id="0FOS43QFxvbTKuppZV42-17" value="Обязательнные часы (практика)&lt;div&gt;INT&lt;/div&gt;" style="ellipse;whiteSpace=wrap;html=1;" parent="1" vertex="1">
          <mxGeometry x="90" y="160" width="120" height="80" as="geometry" />
        </mxCell>
        <mxCell id="0FOS43QFxvbTKuppZV42-18" value="" style="endArrow=none;html=1;rounded=0;entryX=0.5;entryY=0;entryDx=0;entryDy=0;exitX=1;exitY=0.5;exitDx=0;exitDy=0;" parent="1" source="0FOS43QFxvbTKuppZV42-17" target="0FOS43QFxvbTKuppZV42-2" edge="1">
          <mxGeometry width="50" height="50" relative="1" as="geometry">
            <mxPoint x="670" y="440" as="sourcePoint" />
            <mxPoint x="720" y="390" as="targetPoint" />
          </mxGeometry>
        </mxCell>
        <mxCell id="0FOS43QFxvbTKuppZV42-19" value="" style="endArrow=none;html=1;rounded=0;entryX=0.5;entryY=1;entryDx=0;entryDy=0;exitX=0.5;exitY=0;exitDx=0;exitDy=0;" parent="1" source="0FOS43QFxvbTKuppZV42-2" target="0FOS43QFxvbTKuppZV42-16" edge="1">
          <mxGeometry width="50" height="50" relative="1" as="geometry">
            <mxPoint x="410" y="360" as="sourcePoint" />
            <mxPoint x="720" y="390" as="targetPoint" />
          </mxGeometry>
        </mxCell>
        <mxCell id="0FOS43QFxvbTKuppZV42-21" value="Название&lt;div&gt;TEXT&lt;/div&gt;" style="ellipse;whiteSpace=wrap;html=1;" parent="1" vertex="1">
          <mxGeometry x="1000" y="420" width="120" height="80" as="geometry" />
        </mxCell>
        <mxCell id="0FOS43QFxvbTKuppZV42-22" value="&lt;u&gt;ID&lt;/u&gt;&lt;div&gt;&lt;u&gt;INT&lt;/u&gt;&lt;/div&gt;" style="ellipse;whiteSpace=wrap;html=1;" parent="1" vertex="1">
          <mxGeometry x="990" y="320" width="120" height="80" as="geometry" />
        </mxCell>
        <mxCell id="0FOS43QFxvbTKuppZV42-23" value="" style="endArrow=none;html=1;rounded=0;entryX=0.008;entryY=0.619;entryDx=0;entryDy=0;entryPerimeter=0;exitX=1;exitY=0.5;exitDx=0;exitDy=0;" parent="1" source="0FOS43QFxvbTKuppZV42-4" target="0FOS43QFxvbTKuppZV42-22" edge="1">
          <mxGeometry width="50" height="50" relative="1" as="geometry">
            <mxPoint x="590" y="420" as="sourcePoint" />
            <mxPoint x="640" y="370" as="targetPoint" />
          </mxGeometry>
        </mxCell>
        <mxCell id="0FOS43QFxvbTKuppZV42-24" value="" style="endArrow=none;html=1;rounded=0;entryX=0;entryY=0.5;entryDx=0;entryDy=0;exitX=1;exitY=0.5;exitDx=0;exitDy=0;" parent="1" source="0FOS43QFxvbTKuppZV42-4" target="0FOS43QFxvbTKuppZV42-21" edge="1">
          <mxGeometry width="50" height="50" relative="1" as="geometry">
            <mxPoint x="590" y="420" as="sourcePoint" />
            <mxPoint x="640" y="370" as="targetPoint" />
          </mxGeometry>
        </mxCell>
        <mxCell id="0FOS43QFxvbTKuppZV42-25" value="&lt;u&gt;ID&lt;/u&gt;&lt;div&gt;&lt;u&gt;INT&lt;/u&gt;&lt;/div&gt;" style="ellipse;whiteSpace=wrap;html=1;" parent="1" vertex="1">
          <mxGeometry x="510" y="610" width="120" height="80" as="geometry" />
        </mxCell>
        <mxCell id="0FOS43QFxvbTKuppZV42-26" value="Курс&lt;div&gt;INT&lt;/div&gt;" style="ellipse;whiteSpace=wrap;html=1;" parent="1" vertex="1">
          <mxGeometry x="490" y="720" width="120" height="80" as="geometry" />
        </mxCell>
        <mxCell id="0FOS43QFxvbTKuppZV42-27" value="Семестр&lt;div&gt;INT&lt;/div&gt;" style="ellipse;whiteSpace=wrap;html=1;" parent="1" vertex="1">
          <mxGeometry x="620" y="750" width="120" height="80" as="geometry" />
        </mxCell>
        <mxCell id="0FOS43QFxvbTKuppZV42-28" value="Учебный год&lt;div&gt;TEXT&lt;/div&gt;" style="ellipse;whiteSpace=wrap;html=1;" parent="1" vertex="1">
          <mxGeometry x="780" y="710" width="120" height="80" as="geometry" />
        </mxCell>
        <mxCell id="0FOS43QFxvbTKuppZV42-30" value="" style="endArrow=none;html=1;rounded=0;exitX=0.5;exitY=0;exitDx=0;exitDy=0;entryX=0.408;entryY=0.992;entryDx=0;entryDy=0;entryPerimeter=0;" parent="1" source="0FOS43QFxvbTKuppZV42-27" target="0FOS43QFxvbTKuppZV42-6" edge="1">
          <mxGeometry width="50" height="50" relative="1" as="geometry">
            <mxPoint x="590" y="420" as="sourcePoint" />
            <mxPoint x="310" y="580" as="targetPoint" />
          </mxGeometry>
        </mxCell>
        <mxCell id="0FOS43QFxvbTKuppZV42-31" value="" style="endArrow=none;html=1;rounded=0;exitX=0.217;exitY=0.119;exitDx=0;exitDy=0;exitPerimeter=0;entryX=0.75;entryY=1;entryDx=0;entryDy=0;" parent="1" source="0FOS43QFxvbTKuppZV42-28" target="0FOS43QFxvbTKuppZV42-6" edge="1">
          <mxGeometry width="50" height="50" relative="1" as="geometry">
            <mxPoint x="590" y="420" as="sourcePoint" />
            <mxPoint x="640" y="370" as="targetPoint" />
          </mxGeometry>
        </mxCell>
        <mxCell id="0FOS43QFxvbTKuppZV42-33" value="" style="endArrow=none;html=1;rounded=0;entryX=0.775;entryY=0.069;entryDx=0;entryDy=0;exitX=0;exitY=0.75;exitDx=0;exitDy=0;entryPerimeter=0;" parent="1" source="0FOS43QFxvbTKuppZV42-6" target="0FOS43QFxvbTKuppZV42-25" edge="1">
          <mxGeometry width="50" height="50" relative="1" as="geometry">
            <mxPoint x="600" y="600" as="sourcePoint" />
            <mxPoint x="640" y="370" as="targetPoint" />
          </mxGeometry>
        </mxCell>
        <mxCell id="0FOS43QFxvbTKuppZV42-34" value="" style="endArrow=none;html=1;rounded=0;exitX=0.65;exitY=0.019;exitDx=0;exitDy=0;entryX=0.25;entryY=1;entryDx=0;entryDy=0;exitPerimeter=0;" parent="1" source="0FOS43QFxvbTKuppZV42-26" target="0FOS43QFxvbTKuppZV42-6" edge="1">
          <mxGeometry width="50" height="50" relative="1" as="geometry">
            <mxPoint x="590" y="420" as="sourcePoint" />
            <mxPoint x="640" y="370" as="targetPoint" />
          </mxGeometry>
        </mxCell>
        <mxCell id="0FOS43QFxvbTKuppZV42-35" value="Нагрузка" style="rounded=0;whiteSpace=wrap;html=1;" parent="1" vertex="1">
          <mxGeometry x="250" y="430" width="120" height="60" as="geometry" />
        </mxCell>
        <mxCell id="0FOS43QFxvbTKuppZV42-36" value="&lt;u&gt;ID&lt;/u&gt;&lt;div&gt;&lt;u&gt;INT&lt;/u&gt;&lt;/div&gt;" style="ellipse;whiteSpace=wrap;html=1;" parent="1" vertex="1">
          <mxGeometry x="130" y="540" width="120" height="80" as="geometry" />
        </mxCell>
        <mxCell id="0FOS43QFxvbTKuppZV42-38" value="" style="endArrow=none;html=1;rounded=0;exitX=0.25;exitY=1;exitDx=0;exitDy=0;" parent="1" source="0FOS43QFxvbTKuppZV42-35" target="0FOS43QFxvbTKuppZV42-36" edge="1">
          <mxGeometry width="50" height="50" relative="1" as="geometry">
            <mxPoint x="590" y="420" as="sourcePoint" />
            <mxPoint x="640" y="370" as="targetPoint" />
          </mxGeometry>
        </mxCell>
        <mxCell id="0FOS43QFxvbTKuppZV42-40" value="Может вести" style="rhombus;whiteSpace=wrap;html=1;" parent="1" vertex="1">
          <mxGeometry x="540" y="230" width="150" height="70" as="geometry" />
        </mxCell>
        <mxCell id="0FOS43QFxvbTKuppZV42-42" value="" style="endArrow=none;html=1;rounded=0;exitX=1;exitY=0.5;exitDx=0;exitDy=0;entryX=0;entryY=0.5;entryDx=0;entryDy=0;" parent="1" source="0FOS43QFxvbTKuppZV42-2" target="0FOS43QFxvbTKuppZV42-40" edge="1">
          <mxGeometry width="50" height="50" relative="1" as="geometry">
            <mxPoint x="550" y="420" as="sourcePoint" />
            <mxPoint x="600" y="370" as="targetPoint" />
          </mxGeometry>
        </mxCell>
        <mxCell id="0FOS43QFxvbTKuppZV42-44" value="М" style="edgeLabel;html=1;align=center;verticalAlign=middle;resizable=0;points=[];" parent="0FOS43QFxvbTKuppZV42-42" vertex="1" connectable="0">
          <mxGeometry x="-0.5303" y="-2" relative="1" as="geometry">
            <mxPoint x="-1" as="offset" />
          </mxGeometry>
        </mxCell>
        <mxCell id="0FOS43QFxvbTKuppZV42-43" value="" style="endArrow=none;html=1;rounded=0;entryX=1;entryY=0;entryDx=0;entryDy=0;exitX=0;exitY=0.5;exitDx=0;exitDy=0;" parent="1" source="0FOS43QFxvbTKuppZV42-3" target="0FOS43QFxvbTKuppZV42-40" edge="1">
          <mxGeometry width="50" height="50" relative="1" as="geometry">
            <mxPoint x="550" y="420" as="sourcePoint" />
            <mxPoint x="600" y="370" as="targetPoint" />
          </mxGeometry>
        </mxCell>
        <mxCell id="0FOS43QFxvbTKuppZV42-45" value="М" style="edgeLabel;html=1;align=center;verticalAlign=middle;resizable=0;points=[];" parent="0FOS43QFxvbTKuppZV42-43" vertex="1" connectable="0">
          <mxGeometry x="-0.6962" y="1" relative="1" as="geometry">
            <mxPoint as="offset" />
          </mxGeometry>
        </mxCell>
        <mxCell id="0FOS43QFxvbTKuppZV42-46" value="" style="endArrow=none;html=1;rounded=0;entryX=0.575;entryY=0.992;entryDx=0;entryDy=0;entryPerimeter=0;" parent="1" source="0FOS43QFxvbTKuppZV42-47" target="0FOS43QFxvbTKuppZV42-3" edge="1">
          <mxGeometry width="50" height="50" relative="1" as="geometry">
            <mxPoint x="850" y="240" as="sourcePoint" />
            <mxPoint x="900" y="240" as="targetPoint" />
          </mxGeometry>
        </mxCell>
        <mxCell id="0FOS43QFxvbTKuppZV42-51" value="М" style="edgeLabel;html=1;align=center;verticalAlign=middle;resizable=0;points=[];" parent="0FOS43QFxvbTKuppZV42-46" vertex="1" connectable="0">
          <mxGeometry x="0.3004" relative="1" as="geometry">
            <mxPoint as="offset" />
          </mxGeometry>
        </mxCell>
        <mxCell id="0FOS43QFxvbTKuppZV42-47" value="Включает" style="rhombus;whiteSpace=wrap;html=1;" parent="1" vertex="1">
          <mxGeometry x="825" y="270" width="130" height="60" as="geometry" />
        </mxCell>
        <mxCell id="0FOS43QFxvbTKuppZV42-49" value="" style="endArrow=none;html=1;rounded=0;exitX=0.5;exitY=0;exitDx=0;exitDy=0;" parent="1" source="0FOS43QFxvbTKuppZV42-4" target="0FOS43QFxvbTKuppZV42-47" edge="1">
          <mxGeometry width="50" height="50" relative="1" as="geometry">
            <mxPoint x="880" y="360" as="sourcePoint" />
            <mxPoint x="610" y="360" as="targetPoint" />
          </mxGeometry>
        </mxCell>
        <mxCell id="0FOS43QFxvbTKuppZV42-52" value="М" style="edgeLabel;html=1;align=center;verticalAlign=middle;resizable=0;points=[];" parent="0FOS43QFxvbTKuppZV42-49" vertex="1" connectable="0">
          <mxGeometry x="-0.3375" y="2" relative="1" as="geometry">
            <mxPoint as="offset" />
          </mxGeometry>
        </mxCell>
        <mxCell id="ghSimwfNRk3rAYMB4Laj-7" value="Часы&lt;div&gt;INT&lt;/div&gt;" style="ellipse;whiteSpace=wrap;html=1;" parent="1" vertex="1">
          <mxGeometry x="50" y="460" width="120" height="80" as="geometry" />
        </mxCell>
        <mxCell id="ghSimwfNRk3rAYMB4Laj-8" value="Включает" style="rhombus;whiteSpace=wrap;html=1;" parent="1" vertex="1">
          <mxGeometry x="460" y="370" width="160" height="70" as="geometry" />
        </mxCell>
        <mxCell id="ghSimwfNRk3rAYMB4Laj-9" value="" style="endArrow=none;html=1;rounded=0;entryX=0;entryY=0.75;entryDx=0;entryDy=0;exitX=0.6;exitY=0.079;exitDx=0;exitDy=0;exitPerimeter=0;" parent="1" source="ghSimwfNRk3rAYMB4Laj-8" target="0FOS43QFxvbTKuppZV42-3" edge="1">
          <mxGeometry width="50" height="50" relative="1" as="geometry">
            <mxPoint x="530" y="420" as="sourcePoint" />
            <mxPoint x="580" y="370" as="targetPoint" />
          </mxGeometry>
        </mxCell>
        <mxCell id="ghSimwfNRk3rAYMB4Laj-11" value="1" style="edgeLabel;html=1;align=center;verticalAlign=middle;resizable=0;points=[];" parent="ghSimwfNRk3rAYMB4Laj-9" vertex="1" connectable="0">
          <mxGeometry x="0.7739" relative="1" as="geometry">
            <mxPoint y="1" as="offset" />
          </mxGeometry>
        </mxCell>
        <mxCell id="ghSimwfNRk3rAYMB4Laj-10" value="" style="endArrow=none;html=1;rounded=0;exitX=0.15;exitY=-0.025;exitDx=0;exitDy=0;entryX=0.612;entryY=0.936;entryDx=0;entryDy=0;entryPerimeter=0;exitPerimeter=0;" parent="1" source="0FOS43QFxvbTKuppZV42-6" target="ghSimwfNRk3rAYMB4Laj-8" edge="1">
          <mxGeometry width="50" height="50" relative="1" as="geometry">
            <mxPoint x="530" y="420" as="sourcePoint" />
            <mxPoint x="570" y="425" as="targetPoint" />
          </mxGeometry>
        </mxCell>
        <mxCell id="ghSimwfNRk3rAYMB4Laj-12" value="М" style="edgeLabel;html=1;align=center;verticalAlign=middle;resizable=0;points=[];" parent="ghSimwfNRk3rAYMB4Laj-10" vertex="1" connectable="0">
          <mxGeometry x="-0.7598" y="-1" relative="1" as="geometry">
            <mxPoint as="offset" />
          </mxGeometry>
        </mxCell>
        <mxCell id="ghSimwfNRk3rAYMB4Laj-13" value="Предназначен" style="rhombus;whiteSpace=wrap;html=1;" parent="1" vertex="1">
          <mxGeometry x="645" y="379" width="160" height="70" as="geometry" />
        </mxCell>
        <mxCell id="ghSimwfNRk3rAYMB4Laj-14" value="" style="endArrow=none;html=1;rounded=0;entryX=0;entryY=0.5;entryDx=0;entryDy=0;" parent="1" source="ghSimwfNRk3rAYMB4Laj-13" target="0FOS43QFxvbTKuppZV42-4" edge="1">
          <mxGeometry width="50" height="50" relative="1" as="geometry">
            <mxPoint x="530" y="420" as="sourcePoint" />
            <mxPoint x="580" y="370" as="targetPoint" />
          </mxGeometry>
        </mxCell>
        <mxCell id="ghSimwfNRk3rAYMB4Laj-16" value="1" style="edgeLabel;html=1;align=center;verticalAlign=middle;resizable=0;points=[];" parent="ghSimwfNRk3rAYMB4Laj-14" vertex="1" connectable="0">
          <mxGeometry x="0.7478" y="-2" relative="1" as="geometry">
            <mxPoint as="offset" />
          </mxGeometry>
        </mxCell>
        <mxCell id="ghSimwfNRk3rAYMB4Laj-15" value="" style="endArrow=none;html=1;rounded=0;exitX=0.383;exitY=-0.058;exitDx=0;exitDy=0;entryX=0.362;entryY=0.864;entryDx=0;entryDy=0;exitPerimeter=0;entryPerimeter=0;" parent="1" source="0FOS43QFxvbTKuppZV42-6" target="ghSimwfNRk3rAYMB4Laj-13" edge="1">
          <mxGeometry width="50" height="50" relative="1" as="geometry">
            <mxPoint x="530" y="420" as="sourcePoint" />
            <mxPoint x="580" y="370" as="targetPoint" />
          </mxGeometry>
        </mxCell>
        <mxCell id="ghSimwfNRk3rAYMB4Laj-17" value="М" style="edgeLabel;html=1;align=center;verticalAlign=middle;resizable=0;points=[];" parent="ghSimwfNRk3rAYMB4Laj-15" vertex="1" connectable="0">
          <mxGeometry x="-0.715" y="-3" relative="1" as="geometry">
            <mxPoint x="1" as="offset" />
          </mxGeometry>
        </mxCell>
        <mxCell id="ghSimwfNRk3rAYMB4Laj-18" value="Распределение нагрузки" style="rhombus;whiteSpace=wrap;html=1;" parent="1" vertex="1">
          <mxGeometry x="420" y="490" width="180" height="80" as="geometry" />
        </mxCell>
        <mxCell id="ghSimwfNRk3rAYMB4Laj-21" value="" style="endArrow=none;html=1;rounded=0;entryX=0;entryY=0.75;entryDx=0;entryDy=0;" parent="1" source="ghSimwfNRk3rAYMB4Laj-7" target="0FOS43QFxvbTKuppZV42-35" edge="1">
          <mxGeometry width="50" height="50" relative="1" as="geometry">
            <mxPoint x="540" y="450" as="sourcePoint" />
            <mxPoint x="590" y="400" as="targetPoint" />
          </mxGeometry>
        </mxCell>
        <mxCell id="ghSimwfNRk3rAYMB4Laj-23" value="" style="endArrow=none;html=1;rounded=0;exitX=1;exitY=0.5;exitDx=0;exitDy=0;entryX=0;entryY=0.5;entryDx=0;entryDy=0;" parent="1" source="0FOS43QFxvbTKuppZV42-35" target="ghSimwfNRk3rAYMB4Laj-18" edge="1">
          <mxGeometry width="50" height="50" relative="1" as="geometry">
            <mxPoint x="540" y="450" as="sourcePoint" />
            <mxPoint x="590" y="400" as="targetPoint" />
          </mxGeometry>
        </mxCell>
        <mxCell id="ghSimwfNRk3rAYMB4Laj-34" value="М" style="edgeLabel;html=1;align=center;verticalAlign=middle;resizable=0;points=[];" parent="ghSimwfNRk3rAYMB4Laj-23" vertex="1" connectable="0">
          <mxGeometry x="-0.3431" y="-4" relative="1" as="geometry">
            <mxPoint as="offset" />
          </mxGeometry>
        </mxCell>
        <mxCell id="ghSimwfNRk3rAYMB4Laj-24" value="" style="endArrow=none;html=1;rounded=0;entryX=0;entryY=0.25;entryDx=0;entryDy=0;" parent="1" source="ghSimwfNRk3rAYMB4Laj-18" target="0FOS43QFxvbTKuppZV42-6" edge="1">
          <mxGeometry width="50" height="50" relative="1" as="geometry">
            <mxPoint x="540" y="450" as="sourcePoint" />
            <mxPoint x="590" y="400" as="targetPoint" />
          </mxGeometry>
        </mxCell>
        <mxCell id="ghSimwfNRk3rAYMB4Laj-33" value="1" style="edgeLabel;html=1;align=center;verticalAlign=middle;resizable=0;points=[];" parent="ghSimwfNRk3rAYMB4Laj-24" vertex="1" connectable="0">
          <mxGeometry x="0.72" y="-3" relative="1" as="geometry">
            <mxPoint as="offset" />
          </mxGeometry>
        </mxCell>
        <mxCell id="ghSimwfNRk3rAYMB4Laj-25" value="Выполняется" style="rhombus;whiteSpace=wrap;html=1;" parent="1" vertex="1">
          <mxGeometry x="120" y="309" width="160" height="70" as="geometry" />
        </mxCell>
        <mxCell id="ghSimwfNRk3rAYMB4Laj-26" value="" style="endArrow=none;html=1;rounded=0;entryX=0.25;entryY=1;entryDx=0;entryDy=0;exitX=0.681;exitY=0.136;exitDx=0;exitDy=0;exitPerimeter=0;" parent="1" source="ghSimwfNRk3rAYMB4Laj-25" target="0FOS43QFxvbTKuppZV42-2" edge="1">
          <mxGeometry width="50" height="50" relative="1" as="geometry">
            <mxPoint x="540" y="450" as="sourcePoint" />
            <mxPoint x="590" y="400" as="targetPoint" />
          </mxGeometry>
        </mxCell>
        <mxCell id="ghSimwfNRk3rAYMB4Laj-28" value="1" style="edgeLabel;html=1;align=center;verticalAlign=middle;resizable=0;points=[];" parent="ghSimwfNRk3rAYMB4Laj-26" vertex="1" connectable="0">
          <mxGeometry x="0.5981" relative="1" as="geometry">
            <mxPoint as="offset" />
          </mxGeometry>
        </mxCell>
        <mxCell id="ghSimwfNRk3rAYMB4Laj-27" value="" style="endArrow=none;html=1;rounded=0;exitX=0.583;exitY=0;exitDx=0;exitDy=0;exitPerimeter=0;" parent="1" source="0FOS43QFxvbTKuppZV42-35" target="ghSimwfNRk3rAYMB4Laj-25" edge="1">
          <mxGeometry width="50" height="50" relative="1" as="geometry">
            <mxPoint x="540" y="450" as="sourcePoint" />
            <mxPoint x="590" y="400" as="targetPoint" />
          </mxGeometry>
        </mxCell>
        <mxCell id="ghSimwfNRk3rAYMB4Laj-29" value="М" style="edgeLabel;html=1;align=center;verticalAlign=middle;resizable=0;points=[];" parent="ghSimwfNRk3rAYMB4Laj-27" vertex="1" connectable="0">
          <mxGeometry x="-0.4878" y="-2" relative="1" as="geometry">
            <mxPoint as="offset" />
          </mxGeometry>
        </mxCell>
        <mxCell id="nUomSb6CtFyVOVmUmemi-1" value="Тип отчётности" style="rounded=0;whiteSpace=wrap;html=1;" parent="1" vertex="1">
          <mxGeometry x="920" y="620" width="120" height="60" as="geometry" />
        </mxCell>
        <mxCell id="nUomSb6CtFyVOVmUmemi-3" value="Тип занятия" style="rounded=0;whiteSpace=wrap;html=1;" parent="1" vertex="1">
          <mxGeometry x="220" y="700" width="120" height="60" as="geometry" />
        </mxCell>
        <mxCell id="nUomSb6CtFyVOVmUmemi-4" value="&lt;u&gt;ID&lt;/u&gt;&lt;div&gt;&lt;u&gt;INT&lt;/u&gt;&lt;/div&gt;" style="ellipse;whiteSpace=wrap;html=1;" parent="1" vertex="1">
          <mxGeometry x="250" y="800" width="120" height="80" as="geometry" />
        </mxCell>
        <mxCell id="nUomSb6CtFyVOVmUmemi-6" value="&lt;u&gt;ID&lt;/u&gt;&lt;div&gt;&lt;u&gt;INT&lt;/u&gt;&lt;/div&gt;" style="ellipse;whiteSpace=wrap;html=1;" parent="1" vertex="1">
          <mxGeometry x="1040" y="690" width="120" height="80" as="geometry" />
        </mxCell>
        <mxCell id="nUomSb6CtFyVOVmUmemi-9" value="" style="endArrow=none;html=1;rounded=0;entryX=0.5;entryY=1;entryDx=0;entryDy=0;" parent="1" source="nUomSb6CtFyVOVmUmemi-6" target="nUomSb6CtFyVOVmUmemi-1" edge="1">
          <mxGeometry width="50" height="50" relative="1" as="geometry">
            <mxPoint x="500" y="470" as="sourcePoint" />
            <mxPoint x="550" y="420" as="targetPoint" />
          </mxGeometry>
        </mxCell>
        <mxCell id="nUomSb6CtFyVOVmUmemi-10" value="" style="endArrow=none;html=1;rounded=0;exitX=0.5;exitY=0;exitDx=0;exitDy=0;entryX=0.5;entryY=1;entryDx=0;entryDy=0;" parent="1" source="nUomSb6CtFyVOVmUmemi-4" target="nUomSb6CtFyVOVmUmemi-3" edge="1">
          <mxGeometry width="50" height="50" relative="1" as="geometry">
            <mxPoint x="500" y="470" as="sourcePoint" />
            <mxPoint x="550" y="420" as="targetPoint" />
          </mxGeometry>
        </mxCell>
        <mxCell id="nUomSb6CtFyVOVmUmemi-11" value="Название&lt;div&gt;TEXT&lt;/div&gt;" style="ellipse;whiteSpace=wrap;html=1;" parent="1" vertex="1">
          <mxGeometry x="90" y="790" width="120" height="80" as="geometry" />
        </mxCell>
        <mxCell id="nUomSb6CtFyVOVmUmemi-12" value="Название&lt;div&gt;TEXT&lt;/div&gt;" style="ellipse;whiteSpace=wrap;html=1;" parent="1" vertex="1">
          <mxGeometry x="955" y="790" width="120" height="80" as="geometry" />
        </mxCell>
        <mxCell id="nUomSb6CtFyVOVmUmemi-13" value="" style="endArrow=none;html=1;rounded=0;exitX=1;exitY=0;exitDx=0;exitDy=0;entryX=0.25;entryY=1;entryDx=0;entryDy=0;" parent="1" source="nUomSb6CtFyVOVmUmemi-11" target="nUomSb6CtFyVOVmUmemi-3" edge="1">
          <mxGeometry width="50" height="50" relative="1" as="geometry">
            <mxPoint x="500" y="470" as="sourcePoint" />
            <mxPoint x="550" y="420" as="targetPoint" />
          </mxGeometry>
        </mxCell>
        <mxCell id="nUomSb6CtFyVOVmUmemi-14" style="edgeStyle=orthogonalEdgeStyle;rounded=0;orthogonalLoop=1;jettySize=auto;html=1;exitX=0.5;exitY=1;exitDx=0;exitDy=0;" parent="1" source="0FOS43QFxvbTKuppZV42-25" target="0FOS43QFxvbTKuppZV42-25" edge="1">
          <mxGeometry relative="1" as="geometry" />
        </mxCell>
        <mxCell id="nUomSb6CtFyVOVmUmemi-15" value="" style="endArrow=none;html=1;rounded=0;exitX=0.258;exitY=0.081;exitDx=0;exitDy=0;exitPerimeter=0;entryX=0.383;entryY=1.042;entryDx=0;entryDy=0;entryPerimeter=0;" parent="1" source="nUomSb6CtFyVOVmUmemi-12" target="nUomSb6CtFyVOVmUmemi-1" edge="1">
          <mxGeometry width="50" height="50" relative="1" as="geometry">
            <mxPoint x="500" y="470" as="sourcePoint" />
            <mxPoint x="550" y="420" as="targetPoint" />
          </mxGeometry>
        </mxCell>
        <mxCell id="nUomSb6CtFyVOVmUmemi-16" value="Определяет тип занятия" style="rhombus;whiteSpace=wrap;html=1;" parent="1" vertex="1">
          <mxGeometry x="290" y="570" width="170" height="70" as="geometry" />
        </mxCell>
        <mxCell id="nUomSb6CtFyVOVmUmemi-17" value="" style="endArrow=none;html=1;rounded=0;entryX=0.75;entryY=1;entryDx=0;entryDy=0;exitX=0.453;exitY=0.079;exitDx=0;exitDy=0;exitPerimeter=0;" parent="1" source="nUomSb6CtFyVOVmUmemi-16" target="0FOS43QFxvbTKuppZV42-35" edge="1">
          <mxGeometry width="50" height="50" relative="1" as="geometry">
            <mxPoint x="500" y="570" as="sourcePoint" />
            <mxPoint x="550" y="520" as="targetPoint" />
          </mxGeometry>
        </mxCell>
        <mxCell id="nUomSb6CtFyVOVmUmemi-29" value="М" style="edgeLabel;html=1;align=center;verticalAlign=middle;resizable=0;points=[];" parent="nUomSb6CtFyVOVmUmemi-17" vertex="1" connectable="0">
          <mxGeometry x="0.6237" y="2" relative="1" as="geometry">
            <mxPoint as="offset" />
          </mxGeometry>
        </mxCell>
        <mxCell id="nUomSb6CtFyVOVmUmemi-18" value="" style="endArrow=none;html=1;rounded=0;exitX=0.75;exitY=0;exitDx=0;exitDy=0;entryX=0.353;entryY=0.864;entryDx=0;entryDy=0;entryPerimeter=0;" parent="1" source="nUomSb6CtFyVOVmUmemi-3" target="nUomSb6CtFyVOVmUmemi-16" edge="1">
          <mxGeometry width="50" height="50" relative="1" as="geometry">
            <mxPoint x="500" y="570" as="sourcePoint" />
            <mxPoint x="550" y="520" as="targetPoint" />
          </mxGeometry>
        </mxCell>
        <mxCell id="nUomSb6CtFyVOVmUmemi-20" value="1" style="edgeLabel;html=1;align=center;verticalAlign=middle;resizable=0;points=[];" parent="nUomSb6CtFyVOVmUmemi-18" vertex="1" connectable="0">
          <mxGeometry x="-0.4325" relative="1" as="geometry">
            <mxPoint x="1" as="offset" />
          </mxGeometry>
        </mxCell>
        <mxCell id="nUomSb6CtFyVOVmUmemi-22" value="Определяет тип отчетности" style="rhombus;whiteSpace=wrap;html=1;" parent="1" vertex="1">
          <mxGeometry x="880" y="510" width="150" height="70" as="geometry" />
        </mxCell>
        <mxCell id="nUomSb6CtFyVOVmUmemi-23" value="" style="endArrow=none;html=1;rounded=0;entryX=1;entryY=0.5;entryDx=0;entryDy=0;" parent="1" source="nUomSb6CtFyVOVmUmemi-22" target="0FOS43QFxvbTKuppZV42-6" edge="1">
          <mxGeometry width="50" height="50" relative="1" as="geometry">
            <mxPoint x="500" y="570" as="sourcePoint" />
            <mxPoint x="550" y="520" as="targetPoint" />
          </mxGeometry>
        </mxCell>
        <mxCell id="nUomSb6CtFyVOVmUmemi-25" value="М" style="edgeLabel;html=1;align=center;verticalAlign=middle;resizable=0;points=[];" parent="nUomSb6CtFyVOVmUmemi-23" vertex="1" connectable="0">
          <mxGeometry x="0.378" y="1" relative="1" as="geometry">
            <mxPoint y="-1" as="offset" />
          </mxGeometry>
        </mxCell>
        <mxCell id="nUomSb6CtFyVOVmUmemi-24" value="" style="endArrow=none;html=1;rounded=0;exitX=0.5;exitY=0;exitDx=0;exitDy=0;" parent="1" source="nUomSb6CtFyVOVmUmemi-1" target="nUomSb6CtFyVOVmUmemi-22" edge="1">
          <mxGeometry width="50" height="50" relative="1" as="geometry">
            <mxPoint x="500" y="570" as="sourcePoint" />
            <mxPoint x="550" y="520" as="targetPoint" />
          </mxGeometry>
        </mxCell>
        <mxCell id="nUomSb6CtFyVOVmUmemi-26" value="!" style="edgeLabel;html=1;align=center;verticalAlign=middle;resizable=0;points=[];" parent="nUomSb6CtFyVOVmUmemi-24" vertex="1" connectable="0">
          <mxGeometry x="-0.2385" relative="1" as="geometry">
            <mxPoint as="offset" />
          </mxGeometry>
        </mxCell>
        <mxCell id="nUomSb6CtFyVOVmUmemi-27" value="1" style="edgeLabel;html=1;align=center;verticalAlign=middle;resizable=0;points=[];" parent="nUomSb6CtFyVOVmUmemi-24" vertex="1" connectable="0">
          <mxGeometry x="-0.1546" y="-2" relative="1" as="geometry">
            <mxPoint as="offset" />
          </mxGeometry>
        </mxCell>
      </root>
    </mxGraphModel>
  </diagram>
</mxfile>
